M48
; DRILL file {KiCad 7.0.7} date Sun Dec 10 12:52:58 2023
; FORMAT={-:-/ absolute / inch / decimal}
; #@! TF.CreationDate,2023-12-10T12:52:58-04:00
; #@! TF.GenerationSoftware,Kicad,Pcbnew,7.0.7
; #@! TF.FileFunction,Plated,1,2,PTH
FMAT,2
INCH
; #@! TA.AperFunction,Plated,PTH,ViaDrill
T1C0.0157
; #@! TA.AperFunction,Plated,PTH,ComponentDrill
T2C0.0295
; #@! TA.AperFunction,Plated,PTH,ComponentDrill
T3C0.0394
%
G90
G05
T1
X3.9803Y-3.6614
X4.063Y-3.0315
X4.0709Y-3.1575
X4.0965Y-3.5945
X4.126Y-3.1575
X4.1339Y-3.0236
X4.1496Y-3.5591
X4.1594Y-3.4055
X4.1791Y-3.311
X4.1929Y-3.4449
X4.2047Y-3.0394
X4.2362Y-3.4016
X4.2539Y-3.0217
X4.2638Y-3.2854
X4.2697Y-3.9035
X4.2717Y-3.563
X4.2943Y-3.8305
X4.3681Y-3.9035
X4.3917Y-3.2382
X4.3996Y-3.5917
X4.4163Y-3.8581
X4.4488Y-3.2677
X4.4488Y-3.3937
X4.4665Y-3.9035
X4.4941Y-3.2106
X4.4945Y-3.4472
X4.5295Y-3.6055
X4.565Y-3.9035
X4.5921Y-3.6055
X4.6319Y-3.0059
X4.6634Y-3.9035
X4.6969Y-3.1772
X4.7177Y-3.5917
X4.7283Y-3.2815
X4.7579Y-3.3583
X4.7657Y-3.9055
X4.7972Y-3.0138
X4.7976Y-3.6764
X4.8327Y-3.2894
X4.8583Y-3.1024
X4.8976Y-3.1732
X4.8976Y-3.3661
X5.0016Y-3.4429
X5.0055Y-3.2709
X5.0315Y-3.1811
X5.0866Y-3.7835
X5.126Y-3.185
X5.1299Y-3.628
X5.1339Y-3.7776
X5.2165Y-3.565
X5.2244Y-3.185
X5.2724Y-3.7894
X5.2756Y-3.3937
X5.3681Y-3.185
X5.376Y-3.5236
X5.4173Y-3.7953
X5.4291Y-3.5965
X5.4606Y-3.189
X5.498Y-3.8878
X5.5236Y-3.3839
X5.5335Y-3.7992
X5.5827Y-3.1811
X5.5945Y-3.4331
X5.5965Y-3.8878
X5.6083Y-3.25
X5.6949Y-3.8878
X5.7244Y-3.0236
X5.7638Y-3.6713
X5.7933Y-3.8878
X5.8091Y-3.7224
X5.8189Y-3.5571
X5.8563Y-3.3819
X5.8917Y-3.8878
X5.9035Y-3.1811
X5.9311Y-3.0374
X5.939Y-3.6929
X5.9547Y-3.3976
X5.9902Y-3.8878
X6.0886Y-3.8878
X6.1516Y-3.2008
X6.1811Y-3.0512
X6.187Y-3.8878
T2
X4.6142Y-3.4547
X4.6929Y-3.4547
T3
X4.0157Y-3.2461
X4.0157Y-3.3461
X4.0157Y-3.4461
X4.0157Y-3.5461
X4.2665Y-2.8437
X4.2665Y-2.9437
X4.3583Y-3.0906
X4.3665Y-2.8437
X4.3665Y-2.9437
X4.4583Y-3.0906
X4.4665Y-2.8437
X4.4665Y-2.9437
X4.5583Y-3.0906
X4.5665Y-2.8437
X4.5665Y-2.9437
X4.6583Y-3.0906
X4.6665Y-2.8437
X4.6665Y-2.9437
X4.7665Y-2.8437
X4.7665Y-2.9437
X4.8665Y-2.8437
X4.8665Y-2.9437
X4.9665Y-2.8437
X4.9665Y-2.9437
X5.0665Y-2.8437
X5.0665Y-2.9437
X5.1665Y-2.8437
X5.1665Y-2.9437
X5.2665Y-2.8437
X5.2665Y-2.9437
X5.3665Y-2.8437
X5.3665Y-2.9437
X5.4665Y-2.8437
X5.4665Y-2.9437
X5.5665Y-2.8437
X5.5665Y-2.9437
X5.6665Y-2.8437
X5.6665Y-2.9437
X5.7665Y-2.8437
X5.7665Y-2.9437
X5.8665Y-2.8437
X5.8665Y-2.9437
X5.9665Y-2.8437
X5.9665Y-2.9437
X6.0665Y-2.8437
X6.0665Y-2.9437
X6.1665Y-2.8437
X6.1665Y-2.9437
T0
M30
