G04 #@! TF.GenerationSoftware,KiCad,Pcbnew,7.0.7*
G04 #@! TF.CreationDate,2023-12-10T12:53:02-04:00*
G04 #@! TF.ProjectId,pi zero hat,7069207a-6572-46f2-9068-61742e6b6963,rev?*
G04 #@! TF.SameCoordinates,Original*
G04 #@! TF.FileFunction,Soldermask,Top*
G04 #@! TF.FilePolarity,Negative*
%FSLAX46Y46*%
G04 Gerber Fmt 4.6, Leading zero omitted, Abs format (unit mm)*
G04 Created by KiCad (PCBNEW 7.0.7) date 2023-12-10 12:53:02*
%MOMM*%
%LPD*%
G01*
G04 APERTURE LIST*
G04 Aperture macros list*
%AMRoundRect*
0 Rectangle with rounded corners*
0 $1 Rounding radius*
0 $2 $3 $4 $5 $6 $7 $8 $9 X,Y pos of 4 corners*
0 Add a 4 corners polygon primitive as box body*
4,1,4,$2,$3,$4,$5,$6,$7,$8,$9,$2,$3,0*
0 Add four circle primitives for the rounded corners*
1,1,$1+$1,$2,$3*
1,1,$1+$1,$4,$5*
1,1,$1+$1,$6,$7*
1,1,$1+$1,$8,$9*
0 Add four rect primitives between the rounded corners*
20,1,$1+$1,$2,$3,$4,$5,0*
20,1,$1+$1,$4,$5,$6,$7,0*
20,1,$1+$1,$6,$7,$8,$9,0*
20,1,$1+$1,$8,$9,$2,$3,0*%
%AMFreePoly0*
4,1,19,0.500000,-0.750000,0.000000,-0.750000,0.000000,-0.744911,-0.071157,-0.744911,-0.207708,-0.704816,-0.327430,-0.627875,-0.420627,-0.520320,-0.479746,-0.390866,-0.500000,-0.250000,-0.500000,0.250000,-0.479746,0.390866,-0.420627,0.520320,-0.327430,0.627875,-0.207708,0.704816,-0.071157,0.744911,0.000000,0.744911,0.000000,0.750000,0.500000,0.750000,0.500000,-0.750000,0.500000,-0.750000,
$1*%
%AMFreePoly1*
4,1,19,0.000000,0.744911,0.071157,0.744911,0.207708,0.704816,0.327430,0.627875,0.420627,0.520320,0.479746,0.390866,0.500000,0.250000,0.500000,-0.250000,0.479746,-0.390866,0.420627,-0.520320,0.327430,-0.627875,0.207708,-0.704816,0.071157,-0.744911,0.000000,-0.744911,0.000000,-0.750000,-0.500000,-0.750000,-0.500000,0.750000,0.000000,0.750000,0.000000,0.744911,0.000000,0.744911,
$1*%
G04 Aperture macros list end*
%ADD10C,2.700000*%
%ADD11R,1.500000X2.000000*%
%ADD12RoundRect,0.140000X-0.140000X-0.170000X0.140000X-0.170000X0.140000X0.170000X-0.140000X0.170000X0*%
%ADD13RoundRect,0.140000X0.140000X0.170000X-0.140000X0.170000X-0.140000X-0.170000X0.140000X-0.170000X0*%
%ADD14RoundRect,0.140000X0.170000X-0.140000X0.170000X0.140000X-0.170000X0.140000X-0.170000X-0.140000X0*%
%ADD15RoundRect,0.135000X0.185000X-0.135000X0.185000X0.135000X-0.185000X0.135000X-0.185000X-0.135000X0*%
%ADD16RoundRect,0.218750X0.256250X-0.218750X0.256250X0.218750X-0.256250X0.218750X-0.256250X-0.218750X0*%
%ADD17RoundRect,0.150000X0.825000X0.150000X-0.825000X0.150000X-0.825000X-0.150000X0.825000X-0.150000X0*%
%ADD18RoundRect,0.135000X-0.185000X0.135000X-0.185000X-0.135000X0.185000X-0.135000X0.185000X0.135000X0*%
%ADD19RoundRect,0.250000X0.325000X0.650000X-0.325000X0.650000X-0.325000X-0.650000X0.325000X-0.650000X0*%
%ADD20RoundRect,0.150000X0.587500X0.150000X-0.587500X0.150000X-0.587500X-0.150000X0.587500X-0.150000X0*%
%ADD21R,1.800000X1.000000*%
%ADD22RoundRect,0.112500X0.112500X-0.187500X0.112500X0.187500X-0.112500X0.187500X-0.112500X-0.187500X0*%
%ADD23RoundRect,0.250000X-0.350000X-0.625000X0.350000X-0.625000X0.350000X0.625000X-0.350000X0.625000X0*%
%ADD24O,1.200000X1.750000*%
%ADD25C,1.500000*%
%ADD26R,2.200000X4.400000*%
%ADD27R,2.200000X4.000000*%
%ADD28RoundRect,0.200000X-0.275000X0.200000X-0.275000X-0.200000X0.275000X-0.200000X0.275000X0.200000X0*%
%ADD29R,0.900000X1.500000*%
%ADD30FreePoly0,180.000000*%
%ADD31FreePoly1,180.000000*%
%ADD32R,1.700000X1.700000*%
%ADD33O,1.700000X1.700000*%
G04 APERTURE END LIST*
D10*
X161500000Y-96500000D03*
X161500000Y-73500000D03*
D11*
X127950000Y-94050000D03*
X129950000Y-94050000D03*
X131950000Y-94050000D03*
X133950000Y-94050000D03*
X135950000Y-94050000D03*
X137950000Y-94050000D03*
X139950000Y-94050000D03*
X141950000Y-94050000D03*
X141950000Y-78050000D03*
X139950000Y-78050000D03*
X137950000Y-78050000D03*
X135950000Y-78050000D03*
X133950000Y-78050000D03*
X131950000Y-78050000D03*
X129950000Y-78050000D03*
X127950000Y-78050000D03*
D12*
X110245000Y-97875000D03*
X111205000Y-97875000D03*
D13*
X132430000Y-97200000D03*
X131470000Y-97200000D03*
D14*
X116650000Y-93460000D03*
X116650000Y-92500000D03*
D15*
X107725000Y-95820000D03*
X107725000Y-94800000D03*
D16*
X123400000Y-92687500D03*
X123400000Y-91112500D03*
D17*
X114650000Y-96250000D03*
X114650000Y-94980000D03*
X114650000Y-93710000D03*
X114650000Y-92440000D03*
X109700000Y-92440000D03*
X109700000Y-93710000D03*
X109700000Y-94980000D03*
X109700000Y-96250000D03*
D18*
X113000000Y-84250000D03*
X113000000Y-85270000D03*
D19*
X107375000Y-78500000D03*
X104425000Y-78500000D03*
D20*
X111037500Y-89210000D03*
X111037500Y-87310000D03*
X109162500Y-88260000D03*
D15*
X107200000Y-84910000D03*
X107200000Y-83890000D03*
D18*
X107300000Y-88690000D03*
X107300000Y-89710000D03*
D13*
X132430000Y-96100000D03*
X131470000Y-96100000D03*
D21*
X118650000Y-97000000D03*
X118650000Y-94500000D03*
D10*
X103500000Y-73500000D03*
D22*
X124700000Y-96400000D03*
X124700000Y-94300000D03*
D10*
X103500000Y-96500000D03*
D23*
X117200000Y-87750000D03*
D24*
X119200000Y-87750000D03*
D20*
X111100000Y-85660000D03*
X111100000Y-83760000D03*
X109225000Y-84710000D03*
D12*
X122340000Y-85500000D03*
X123300000Y-85500000D03*
D25*
X153500000Y-91350000D03*
X153500000Y-83850000D03*
D26*
X153500000Y-79750000D03*
D27*
X153500000Y-95750000D03*
D18*
X113000000Y-87730000D03*
X113000000Y-88750000D03*
D28*
X123400000Y-87975000D03*
X123400000Y-89625000D03*
D29*
X121300000Y-83680000D03*
X124600000Y-83680000D03*
X124600000Y-78780000D03*
X121300000Y-78780000D03*
D30*
X122650000Y-95450000D03*
D31*
X121350000Y-95450000D03*
D32*
X108370000Y-74770000D03*
D33*
X108370000Y-72230000D03*
X110910000Y-74770000D03*
X110910000Y-72230000D03*
X113450000Y-74770000D03*
X113450000Y-72230000D03*
X115990000Y-74770000D03*
X115990000Y-72230000D03*
X118530000Y-74770000D03*
X118530000Y-72230000D03*
X121070000Y-74770000D03*
X121070000Y-72230000D03*
X123610000Y-74770000D03*
X123610000Y-72230000D03*
X126150000Y-74770000D03*
X126150000Y-72230000D03*
X128690000Y-74770000D03*
X128690000Y-72230000D03*
X131230000Y-74770000D03*
X131230000Y-72230000D03*
X133770000Y-74770000D03*
X133770000Y-72230000D03*
X136310000Y-74770000D03*
X136310000Y-72230000D03*
X138850000Y-74770000D03*
X138850000Y-72230000D03*
X141390000Y-74770000D03*
X141390000Y-72230000D03*
X143930000Y-74770000D03*
X143930000Y-72230000D03*
X146470000Y-74770000D03*
X146470000Y-72230000D03*
X149010000Y-74770000D03*
X149010000Y-72230000D03*
X151550000Y-74770000D03*
X151550000Y-72230000D03*
X154090000Y-74770000D03*
X154090000Y-72230000D03*
X156630000Y-74770000D03*
X156630000Y-72230000D03*
D32*
X110700000Y-78500000D03*
D33*
X113240000Y-78500000D03*
X115780000Y-78500000D03*
X118320000Y-78500000D03*
D32*
X102000000Y-82450000D03*
D33*
X102000000Y-84990000D03*
X102000000Y-87530000D03*
X102000000Y-90070000D03*
M02*
