G04 #@! TF.GenerationSoftware,KiCad,Pcbnew,7.0.7*
G04 #@! TF.CreationDate,2023-12-10T12:49:09-04:00*
G04 #@! TF.ProjectId,Pi hat LoRa,50692068-6174-4204-9c6f-52612e6b6963,rev?*
G04 #@! TF.SameCoordinates,Original*
G04 #@! TF.FileFunction,Legend,Bot*
G04 #@! TF.FilePolarity,Positive*
%FSLAX46Y46*%
G04 Gerber Fmt 4.6, Leading zero omitted, Abs format (unit mm)*
G04 Created by KiCad (PCBNEW 7.0.7) date 2023-12-10 12:49:09*
%MOMM*%
%LPD*%
G01*
G04 APERTURE LIST*
%ADD10C,0.150000*%
%ADD11C,0.120000*%
G04 APERTURE END LIST*
D10*
X130498935Y-98106200D02*
X130384649Y-98144295D01*
X130384649Y-98144295D02*
X130194173Y-98144295D01*
X130194173Y-98144295D02*
X130117982Y-98106200D01*
X130117982Y-98106200D02*
X130079887Y-98068104D01*
X130079887Y-98068104D02*
X130041792Y-97991914D01*
X130041792Y-97991914D02*
X130041792Y-97915723D01*
X130041792Y-97915723D02*
X130079887Y-97839533D01*
X130079887Y-97839533D02*
X130117982Y-97801438D01*
X130117982Y-97801438D02*
X130194173Y-97763342D01*
X130194173Y-97763342D02*
X130346554Y-97725247D01*
X130346554Y-97725247D02*
X130422744Y-97687152D01*
X130422744Y-97687152D02*
X130460839Y-97649057D01*
X130460839Y-97649057D02*
X130498935Y-97572866D01*
X130498935Y-97572866D02*
X130498935Y-97496676D01*
X130498935Y-97496676D02*
X130460839Y-97420485D01*
X130460839Y-97420485D02*
X130422744Y-97382390D01*
X130422744Y-97382390D02*
X130346554Y-97344295D01*
X130346554Y-97344295D02*
X130156077Y-97344295D01*
X130156077Y-97344295D02*
X130041792Y-97382390D01*
X129775125Y-97344295D02*
X129584649Y-98144295D01*
X129584649Y-98144295D02*
X129432268Y-97572866D01*
X129432268Y-97572866D02*
X129279887Y-98144295D01*
X129279887Y-98144295D02*
X129089411Y-97344295D01*
X128022743Y-97344295D02*
X127870362Y-97344295D01*
X127870362Y-97344295D02*
X127794172Y-97382390D01*
X127794172Y-97382390D02*
X127717981Y-97458580D01*
X127717981Y-97458580D02*
X127679886Y-97610961D01*
X127679886Y-97610961D02*
X127679886Y-97877628D01*
X127679886Y-97877628D02*
X127717981Y-98030009D01*
X127717981Y-98030009D02*
X127794172Y-98106200D01*
X127794172Y-98106200D02*
X127870362Y-98144295D01*
X127870362Y-98144295D02*
X128022743Y-98144295D01*
X128022743Y-98144295D02*
X128098934Y-98106200D01*
X128098934Y-98106200D02*
X128175124Y-98030009D01*
X128175124Y-98030009D02*
X128213220Y-97877628D01*
X128213220Y-97877628D02*
X128213220Y-97610961D01*
X128213220Y-97610961D02*
X128175124Y-97458580D01*
X128175124Y-97458580D02*
X128098934Y-97382390D01*
X128098934Y-97382390D02*
X128022743Y-97344295D01*
X127337029Y-98144295D02*
X127337029Y-97344295D01*
X127337029Y-97344295D02*
X126879886Y-98144295D01*
X126879886Y-98144295D02*
X126879886Y-97344295D01*
X156229636Y-60975247D02*
X156115350Y-61013342D01*
X156115350Y-61013342D02*
X156077255Y-61051438D01*
X156077255Y-61051438D02*
X156039159Y-61127628D01*
X156039159Y-61127628D02*
X156039159Y-61241914D01*
X156039159Y-61241914D02*
X156077255Y-61318104D01*
X156077255Y-61318104D02*
X156115350Y-61356200D01*
X156115350Y-61356200D02*
X156191540Y-61394295D01*
X156191540Y-61394295D02*
X156496302Y-61394295D01*
X156496302Y-61394295D02*
X156496302Y-60594295D01*
X156496302Y-60594295D02*
X156229636Y-60594295D01*
X156229636Y-60594295D02*
X156153445Y-60632390D01*
X156153445Y-60632390D02*
X156115350Y-60670485D01*
X156115350Y-60670485D02*
X156077255Y-60746676D01*
X156077255Y-60746676D02*
X156077255Y-60822866D01*
X156077255Y-60822866D02*
X156115350Y-60899057D01*
X156115350Y-60899057D02*
X156153445Y-60937152D01*
X156153445Y-60937152D02*
X156229636Y-60975247D01*
X156229636Y-60975247D02*
X156496302Y-60975247D01*
X155696302Y-61089533D02*
X155086779Y-61089533D01*
X153677255Y-60632390D02*
X153753445Y-60594295D01*
X153753445Y-60594295D02*
X153867731Y-60594295D01*
X153867731Y-60594295D02*
X153982017Y-60632390D01*
X153982017Y-60632390D02*
X154058207Y-60708580D01*
X154058207Y-60708580D02*
X154096302Y-60784771D01*
X154096302Y-60784771D02*
X154134398Y-60937152D01*
X154134398Y-60937152D02*
X154134398Y-61051438D01*
X154134398Y-61051438D02*
X154096302Y-61203819D01*
X154096302Y-61203819D02*
X154058207Y-61280009D01*
X154058207Y-61280009D02*
X153982017Y-61356200D01*
X153982017Y-61356200D02*
X153867731Y-61394295D01*
X153867731Y-61394295D02*
X153791540Y-61394295D01*
X153791540Y-61394295D02*
X153677255Y-61356200D01*
X153677255Y-61356200D02*
X153639159Y-61318104D01*
X153639159Y-61318104D02*
X153639159Y-61051438D01*
X153639159Y-61051438D02*
X153791540Y-61051438D01*
X153296302Y-61394295D02*
X153296302Y-60594295D01*
X153296302Y-60594295D02*
X152839159Y-61394295D01*
X152839159Y-61394295D02*
X152839159Y-60594295D01*
X152458207Y-61394295D02*
X152458207Y-60594295D01*
X152458207Y-60594295D02*
X152267731Y-60594295D01*
X152267731Y-60594295D02*
X152153445Y-60632390D01*
X152153445Y-60632390D02*
X152077255Y-60708580D01*
X152077255Y-60708580D02*
X152039160Y-60784771D01*
X152039160Y-60784771D02*
X152001064Y-60937152D01*
X152001064Y-60937152D02*
X152001064Y-61051438D01*
X152001064Y-61051438D02*
X152039160Y-61203819D01*
X152039160Y-61203819D02*
X152077255Y-61280009D01*
X152077255Y-61280009D02*
X152153445Y-61356200D01*
X152153445Y-61356200D02*
X152267731Y-61394295D01*
X152267731Y-61394295D02*
X152458207Y-61394295D01*
X123394295Y-83634649D02*
X123013342Y-83367982D01*
X123394295Y-83177506D02*
X122594295Y-83177506D01*
X122594295Y-83177506D02*
X122594295Y-83482268D01*
X122594295Y-83482268D02*
X122632390Y-83558458D01*
X122632390Y-83558458D02*
X122670485Y-83596553D01*
X122670485Y-83596553D02*
X122746676Y-83634649D01*
X122746676Y-83634649D02*
X122860961Y-83634649D01*
X122860961Y-83634649D02*
X122937152Y-83596553D01*
X122937152Y-83596553D02*
X122975247Y-83558458D01*
X122975247Y-83558458D02*
X123013342Y-83482268D01*
X123013342Y-83482268D02*
X123013342Y-83177506D01*
X122594295Y-83863220D02*
X122594295Y-84320363D01*
X123394295Y-84091791D02*
X122594295Y-84091791D01*
X123318104Y-85044173D02*
X123356200Y-85006077D01*
X123356200Y-85006077D02*
X123394295Y-84891792D01*
X123394295Y-84891792D02*
X123394295Y-84815601D01*
X123394295Y-84815601D02*
X123356200Y-84701315D01*
X123356200Y-84701315D02*
X123280009Y-84625125D01*
X123280009Y-84625125D02*
X123203819Y-84587030D01*
X123203819Y-84587030D02*
X123051438Y-84548934D01*
X123051438Y-84548934D02*
X122937152Y-84548934D01*
X122937152Y-84548934D02*
X122784771Y-84587030D01*
X122784771Y-84587030D02*
X122708580Y-84625125D01*
X122708580Y-84625125D02*
X122632390Y-84701315D01*
X122632390Y-84701315D02*
X122594295Y-84815601D01*
X122594295Y-84815601D02*
X122594295Y-84891792D01*
X122594295Y-84891792D02*
X122632390Y-85006077D01*
X122632390Y-85006077D02*
X122670485Y-85044173D01*
X122975247Y-86263220D02*
X123013342Y-86377506D01*
X123013342Y-86377506D02*
X123051438Y-86415601D01*
X123051438Y-86415601D02*
X123127628Y-86453697D01*
X123127628Y-86453697D02*
X123241914Y-86453697D01*
X123241914Y-86453697D02*
X123318104Y-86415601D01*
X123318104Y-86415601D02*
X123356200Y-86377506D01*
X123356200Y-86377506D02*
X123394295Y-86301316D01*
X123394295Y-86301316D02*
X123394295Y-85996554D01*
X123394295Y-85996554D02*
X122594295Y-85996554D01*
X122594295Y-85996554D02*
X122594295Y-86263220D01*
X122594295Y-86263220D02*
X122632390Y-86339411D01*
X122632390Y-86339411D02*
X122670485Y-86377506D01*
X122670485Y-86377506D02*
X122746676Y-86415601D01*
X122746676Y-86415601D02*
X122822866Y-86415601D01*
X122822866Y-86415601D02*
X122899057Y-86377506D01*
X122899057Y-86377506D02*
X122937152Y-86339411D01*
X122937152Y-86339411D02*
X122975247Y-86263220D01*
X122975247Y-86263220D02*
X122975247Y-85996554D01*
X123165723Y-86758458D02*
X123165723Y-87139411D01*
X123394295Y-86682268D02*
X122594295Y-86948935D01*
X122594295Y-86948935D02*
X123394295Y-87215601D01*
X122594295Y-87367982D02*
X122594295Y-87825125D01*
X123394295Y-87596553D02*
X122594295Y-87596553D01*
X108703333Y-50724819D02*
X108703333Y-51439104D01*
X108703333Y-51439104D02*
X108750952Y-51581961D01*
X108750952Y-51581961D02*
X108846190Y-51677200D01*
X108846190Y-51677200D02*
X108989047Y-51724819D01*
X108989047Y-51724819D02*
X109084285Y-51724819D01*
X107703333Y-51724819D02*
X108274761Y-51724819D01*
X107989047Y-51724819D02*
X107989047Y-50724819D01*
X107989047Y-50724819D02*
X108084285Y-50867676D01*
X108084285Y-50867676D02*
X108179523Y-50962914D01*
X108179523Y-50962914D02*
X108274761Y-51010533D01*
X119954819Y-51940476D02*
X120669104Y-51940476D01*
X120669104Y-51940476D02*
X120811961Y-51892857D01*
X120811961Y-51892857D02*
X120907200Y-51797619D01*
X120907200Y-51797619D02*
X120954819Y-51654762D01*
X120954819Y-51654762D02*
X120954819Y-51559524D01*
X120954819Y-52940476D02*
X120954819Y-52369048D01*
X120954819Y-52654762D02*
X119954819Y-52654762D01*
X119954819Y-52654762D02*
X120097676Y-52559524D01*
X120097676Y-52559524D02*
X120192914Y-52464286D01*
X120192914Y-52464286D02*
X120240533Y-52369048D01*
X119954819Y-53559524D02*
X119954819Y-53654762D01*
X119954819Y-53654762D02*
X120002438Y-53750000D01*
X120002438Y-53750000D02*
X120050057Y-53797619D01*
X120050057Y-53797619D02*
X120145295Y-53845238D01*
X120145295Y-53845238D02*
X120335771Y-53892857D01*
X120335771Y-53892857D02*
X120573866Y-53892857D01*
X120573866Y-53892857D02*
X120764342Y-53845238D01*
X120764342Y-53845238D02*
X120859580Y-53797619D01*
X120859580Y-53797619D02*
X120907200Y-53750000D01*
X120907200Y-53750000D02*
X120954819Y-53654762D01*
X120954819Y-53654762D02*
X120954819Y-53559524D01*
X120954819Y-53559524D02*
X120907200Y-53464286D01*
X120907200Y-53464286D02*
X120859580Y-53416667D01*
X120859580Y-53416667D02*
X120764342Y-53369048D01*
X120764342Y-53369048D02*
X120573866Y-53321429D01*
X120573866Y-53321429D02*
X120335771Y-53321429D01*
X120335771Y-53321429D02*
X120145295Y-53369048D01*
X120145295Y-53369048D02*
X120050057Y-53416667D01*
X120050057Y-53416667D02*
X120002438Y-53464286D01*
X120002438Y-53464286D02*
X119954819Y-53559524D01*
X155233333Y-64454819D02*
X155233333Y-65169104D01*
X155233333Y-65169104D02*
X155280952Y-65311961D01*
X155280952Y-65311961D02*
X155376190Y-65407200D01*
X155376190Y-65407200D02*
X155519047Y-65454819D01*
X155519047Y-65454819D02*
X155614285Y-65454819D01*
X154757142Y-65454819D02*
X154757142Y-64454819D01*
X154757142Y-64454819D02*
X154376190Y-64454819D01*
X154376190Y-64454819D02*
X154280952Y-64502438D01*
X154280952Y-64502438D02*
X154233333Y-64550057D01*
X154233333Y-64550057D02*
X154185714Y-64645295D01*
X154185714Y-64645295D02*
X154185714Y-64788152D01*
X154185714Y-64788152D02*
X154233333Y-64883390D01*
X154233333Y-64883390D02*
X154280952Y-64931009D01*
X154280952Y-64931009D02*
X154376190Y-64978628D01*
X154376190Y-64978628D02*
X154757142Y-64978628D01*
X153328571Y-64454819D02*
X153519047Y-64454819D01*
X153519047Y-64454819D02*
X153614285Y-64502438D01*
X153614285Y-64502438D02*
X153661904Y-64550057D01*
X153661904Y-64550057D02*
X153757142Y-64692914D01*
X153757142Y-64692914D02*
X153804761Y-64883390D01*
X153804761Y-64883390D02*
X153804761Y-65264342D01*
X153804761Y-65264342D02*
X153757142Y-65359580D01*
X153757142Y-65359580D02*
X153709523Y-65407200D01*
X153709523Y-65407200D02*
X153614285Y-65454819D01*
X153614285Y-65454819D02*
X153423809Y-65454819D01*
X153423809Y-65454819D02*
X153328571Y-65407200D01*
X153328571Y-65407200D02*
X153280952Y-65359580D01*
X153280952Y-65359580D02*
X153233333Y-65264342D01*
X153233333Y-65264342D02*
X153233333Y-65026247D01*
X153233333Y-65026247D02*
X153280952Y-64931009D01*
X153280952Y-64931009D02*
X153328571Y-64883390D01*
X153328571Y-64883390D02*
X153423809Y-64835771D01*
X153423809Y-64835771D02*
X153614285Y-64835771D01*
X153614285Y-64835771D02*
X153709523Y-64883390D01*
X153709523Y-64883390D02*
X153757142Y-64931009D01*
X153757142Y-64931009D02*
X153804761Y-65026247D01*
X102333333Y-53574819D02*
X102333333Y-54289104D01*
X102333333Y-54289104D02*
X102380952Y-54431961D01*
X102380952Y-54431961D02*
X102476190Y-54527200D01*
X102476190Y-54527200D02*
X102619047Y-54574819D01*
X102619047Y-54574819D02*
X102714285Y-54574819D01*
X101428571Y-53574819D02*
X101619047Y-53574819D01*
X101619047Y-53574819D02*
X101714285Y-53622438D01*
X101714285Y-53622438D02*
X101761904Y-53670057D01*
X101761904Y-53670057D02*
X101857142Y-53812914D01*
X101857142Y-53812914D02*
X101904761Y-54003390D01*
X101904761Y-54003390D02*
X101904761Y-54384342D01*
X101904761Y-54384342D02*
X101857142Y-54479580D01*
X101857142Y-54479580D02*
X101809523Y-54527200D01*
X101809523Y-54527200D02*
X101714285Y-54574819D01*
X101714285Y-54574819D02*
X101523809Y-54574819D01*
X101523809Y-54574819D02*
X101428571Y-54527200D01*
X101428571Y-54527200D02*
X101380952Y-54479580D01*
X101380952Y-54479580D02*
X101333333Y-54384342D01*
X101333333Y-54384342D02*
X101333333Y-54146247D01*
X101333333Y-54146247D02*
X101380952Y-54051009D01*
X101380952Y-54051009D02*
X101428571Y-54003390D01*
X101428571Y-54003390D02*
X101523809Y-53955771D01*
X101523809Y-53955771D02*
X101714285Y-53955771D01*
X101714285Y-53955771D02*
X101809523Y-54003390D01*
X101809523Y-54003390D02*
X101857142Y-54051009D01*
X101857142Y-54051009D02*
X101904761Y-54146247D01*
X136033333Y-97254819D02*
X136033333Y-97969104D01*
X136033333Y-97969104D02*
X136080952Y-98111961D01*
X136080952Y-98111961D02*
X136176190Y-98207200D01*
X136176190Y-98207200D02*
X136319047Y-98254819D01*
X136319047Y-98254819D02*
X136414285Y-98254819D01*
X135557142Y-98254819D02*
X135557142Y-97254819D01*
X135557142Y-97254819D02*
X135176190Y-97254819D01*
X135176190Y-97254819D02*
X135080952Y-97302438D01*
X135080952Y-97302438D02*
X135033333Y-97350057D01*
X135033333Y-97350057D02*
X134985714Y-97445295D01*
X134985714Y-97445295D02*
X134985714Y-97588152D01*
X134985714Y-97588152D02*
X135033333Y-97683390D01*
X135033333Y-97683390D02*
X135080952Y-97731009D01*
X135080952Y-97731009D02*
X135176190Y-97778628D01*
X135176190Y-97778628D02*
X135557142Y-97778628D01*
X134080952Y-97254819D02*
X134557142Y-97254819D01*
X134557142Y-97254819D02*
X134604761Y-97731009D01*
X134604761Y-97731009D02*
X134557142Y-97683390D01*
X134557142Y-97683390D02*
X134461904Y-97635771D01*
X134461904Y-97635771D02*
X134223809Y-97635771D01*
X134223809Y-97635771D02*
X134128571Y-97683390D01*
X134128571Y-97683390D02*
X134080952Y-97731009D01*
X134080952Y-97731009D02*
X134033333Y-97826247D01*
X134033333Y-97826247D02*
X134033333Y-98064342D01*
X134033333Y-98064342D02*
X134080952Y-98159580D01*
X134080952Y-98159580D02*
X134128571Y-98207200D01*
X134128571Y-98207200D02*
X134223809Y-98254819D01*
X134223809Y-98254819D02*
X134461904Y-98254819D01*
X134461904Y-98254819D02*
X134557142Y-98207200D01*
X134557142Y-98207200D02*
X134604761Y-98159580D01*
X114833333Y-64799819D02*
X114833333Y-65514104D01*
X114833333Y-65514104D02*
X114880952Y-65656961D01*
X114880952Y-65656961D02*
X114976190Y-65752200D01*
X114976190Y-65752200D02*
X115119047Y-65799819D01*
X115119047Y-65799819D02*
X115214285Y-65799819D01*
X114452380Y-64799819D02*
X113785714Y-64799819D01*
X113785714Y-64799819D02*
X114214285Y-65799819D01*
X128354819Y-94066666D02*
X129069104Y-94066666D01*
X129069104Y-94066666D02*
X129211961Y-94019047D01*
X129211961Y-94019047D02*
X129307200Y-93923809D01*
X129307200Y-93923809D02*
X129354819Y-93780952D01*
X129354819Y-93780952D02*
X129354819Y-93685714D01*
X128354819Y-94447619D02*
X128354819Y-95066666D01*
X128354819Y-95066666D02*
X128735771Y-94733333D01*
X128735771Y-94733333D02*
X128735771Y-94876190D01*
X128735771Y-94876190D02*
X128783390Y-94971428D01*
X128783390Y-94971428D02*
X128831009Y-95019047D01*
X128831009Y-95019047D02*
X128926247Y-95066666D01*
X128926247Y-95066666D02*
X129164342Y-95066666D01*
X129164342Y-95066666D02*
X129259580Y-95019047D01*
X129259580Y-95019047D02*
X129307200Y-94971428D01*
X129307200Y-94971428D02*
X129354819Y-94876190D01*
X129354819Y-94876190D02*
X129354819Y-94590476D01*
X129354819Y-94590476D02*
X129307200Y-94495238D01*
X129307200Y-94495238D02*
X129259580Y-94447619D01*
X118354819Y-84366666D02*
X119069104Y-84366666D01*
X119069104Y-84366666D02*
X119211961Y-84319047D01*
X119211961Y-84319047D02*
X119307200Y-84223809D01*
X119307200Y-84223809D02*
X119354819Y-84080952D01*
X119354819Y-84080952D02*
X119354819Y-83985714D01*
X119354819Y-84842857D02*
X118354819Y-84842857D01*
X118354819Y-84842857D02*
X118354819Y-85223809D01*
X118354819Y-85223809D02*
X118402438Y-85319047D01*
X118402438Y-85319047D02*
X118450057Y-85366666D01*
X118450057Y-85366666D02*
X118545295Y-85414285D01*
X118545295Y-85414285D02*
X118688152Y-85414285D01*
X118688152Y-85414285D02*
X118783390Y-85366666D01*
X118783390Y-85366666D02*
X118831009Y-85319047D01*
X118831009Y-85319047D02*
X118878628Y-85223809D01*
X118878628Y-85223809D02*
X118878628Y-84842857D01*
X119354819Y-86366666D02*
X119354819Y-85795238D01*
X119354819Y-86080952D02*
X118354819Y-86080952D01*
X118354819Y-86080952D02*
X118497676Y-85985714D01*
X118497676Y-85985714D02*
X118592914Y-85890476D01*
X118592914Y-85890476D02*
X118640533Y-85795238D01*
D11*
X157960000Y-44900000D02*
X157960000Y-50100000D01*
X107040000Y-44900000D02*
X157960000Y-44900000D01*
X107040000Y-44900000D02*
X107040000Y-47500000D01*
X109640000Y-47500000D02*
X109640000Y-50100000D01*
X107040000Y-47500000D02*
X109640000Y-47500000D01*
X107040000Y-48770000D02*
X107040000Y-50100000D01*
X109640000Y-50100000D02*
X157960000Y-50100000D01*
X107040000Y-50100000D02*
X108370000Y-50100000D01*
X119650000Y-51170000D02*
X119650000Y-53830000D01*
X111970000Y-51170000D02*
X119650000Y-51170000D01*
X111970000Y-51170000D02*
X111970000Y-53830000D01*
X110700000Y-51170000D02*
X109370000Y-51170000D01*
X109370000Y-51170000D02*
X109370000Y-52500000D01*
X111970000Y-53830000D02*
X119650000Y-53830000D01*
X153000000Y-62900000D02*
X153000000Y-63500000D01*
X153700000Y-64200000D02*
X155100000Y-64200000D01*
X155100000Y-62200000D02*
X153700000Y-62200000D01*
X155800000Y-63500000D02*
X155800000Y-62900000D01*
X153700000Y-62200000D02*
G75*
G03*
X153000000Y-62900000I-1J-699999D01*
G01*
X153000000Y-63500000D02*
G75*
G03*
X153700000Y-64200000I699999J-1D01*
G01*
X155800000Y-62900000D02*
G75*
G03*
X155100000Y-62200000I-700000J0D01*
G01*
X155100000Y-64200000D02*
G75*
G03*
X155800000Y-63500000I0J700000D01*
G01*
X103330000Y-65400000D02*
X100670000Y-65400000D01*
X103330000Y-57720000D02*
X103330000Y-65400000D01*
X103330000Y-57720000D02*
X100670000Y-57720000D01*
X103330000Y-56450000D02*
X103330000Y-55120000D01*
X103330000Y-55120000D02*
X102000000Y-55120000D01*
X100670000Y-57720000D02*
X100670000Y-65400000D01*
X130950000Y-97500000D02*
X130950000Y-98100000D01*
X131650000Y-98800000D02*
X133050000Y-98800000D01*
X133050000Y-96800000D02*
X131650000Y-96800000D01*
X133750000Y-98100000D02*
X133750000Y-97500000D01*
X131650000Y-96800000D02*
G75*
G03*
X130950000Y-97500000I-1J-699999D01*
G01*
X130950000Y-98100000D02*
G75*
G03*
X131650000Y-98800000I699999J-1D01*
G01*
X133750000Y-97500000D02*
G75*
G03*
X133050000Y-96800000I-700000J0D01*
G01*
X133050000Y-98800000D02*
G75*
G03*
X133750000Y-98100000I0J700000D01*
G01*
X115830000Y-79165000D02*
X113170000Y-79165000D01*
X115830000Y-68945000D02*
X115830000Y-79165000D01*
X115830000Y-68945000D02*
X113170000Y-68945000D01*
X115830000Y-67675000D02*
X115830000Y-66345000D01*
X115830000Y-66345000D02*
X114500000Y-66345000D01*
X113170000Y-68945000D02*
X113170000Y-79165000D01*
X130105000Y-95830000D02*
X130105000Y-93170000D01*
X132705000Y-95830000D02*
X130105000Y-95830000D01*
X132705000Y-95830000D02*
X132705000Y-93170000D01*
X133975000Y-95830000D02*
X135305000Y-95830000D01*
X135305000Y-95830000D02*
X135305000Y-94500000D01*
X132705000Y-93170000D02*
X130105000Y-93170000D01*
X121000000Y-83800000D02*
X120400000Y-83800000D01*
X119700000Y-84500000D02*
X119700000Y-85900000D01*
X121700000Y-85900000D02*
X121700000Y-84500000D01*
X120400000Y-86600000D02*
X121000000Y-86600000D01*
X121700000Y-84500000D02*
G75*
G03*
X121000000Y-83800000I-699999J1D01*
G01*
X120400000Y-83800000D02*
G75*
G03*
X119700000Y-84500000I-1J-699999D01*
G01*
X121000000Y-86600000D02*
G75*
G03*
X121700000Y-85900000I0J700000D01*
G01*
X119700000Y-85900000D02*
G75*
G03*
X120400000Y-86600000I700000J0D01*
G01*
M02*
