M48
; DRILL file {KiCad 7.0.7} date Sun Dec 10 12:49:06 2023
; FORMAT={-:-/ absolute / inch / decimal}
; #@! TF.CreationDate,2023-12-10T12:49:06-04:00
; #@! TF.GenerationSoftware,Kicad,Pcbnew,7.0.7
; #@! TF.FileFunction,Plated,1,2,PTH
FMAT,2
INCH
; #@! TA.AperFunction,Plated,PTH,ComponentDrill
T1C0.0118
; #@! TA.AperFunction,Plated,PTH,ViaDrill
T2C0.0157
; #@! TA.AperFunction,Plated,PTH,ComponentDrill
T3C0.0236
; #@! TA.AperFunction,Plated,PTH,ComponentDrill
T4C0.0295
; #@! TA.AperFunction,Plated,PTH,ComponentDrill
T5C0.0394
%
G90
G05
T1
X5.9803Y-2.8937
X5.9803Y-2.9449
X5.9803Y-2.9961
X5.9803Y-3.0472
X6.0315Y-2.8937
X6.0315Y-2.9449
X6.0315Y-2.9961
X6.0315Y-3.0472
T2
X3.9764Y-2.9724
X3.9764Y-3.0709
X3.9764Y-3.1693
X3.9764Y-3.2677
X3.9764Y-3.3661
X3.9764Y-3.4646
X3.9764Y-3.563
X3.9764Y-3.6614
X3.9803Y-2.6378
X4.063Y-2.0079
X4.0709Y-2.1339
X4.0787Y-3.0709
X4.0965Y-2.5709
X4.1063Y-2.9488
X4.1102Y-3.4488
X4.126Y-2.1339
X4.1339Y-2.0
X4.1496Y-2.5354
X4.1594Y-2.3819
X4.1791Y-2.2874
X4.1929Y-2.4213
X4.2047Y-2.0157
X4.2047Y-3.4646
X4.2047Y-3.6535
X4.2199Y-2.7795
X4.2205Y-2.5276
X4.2362Y-2.378
X4.2539Y-1.998
X4.2539Y-3.8839
X4.2638Y-2.2618
X4.2717Y-2.5394
X4.2835Y-2.6929
X4.2992Y-3.0945
X4.325Y-2.8976
X4.3504Y-2.5354
X4.3504Y-2.7657
X4.3524Y-3.8839
X4.3622Y-3.1102
X4.376Y-3.2638
X4.3858Y-3.0394
X4.3917Y-2.2146
X4.4409Y-2.5748
X4.4488Y-2.2441
X4.4488Y-2.3701
X4.4488Y-3.3425
X4.4508Y-3.8839
X4.4882Y-3.2657
X4.4941Y-2.187
X4.4941Y-3.1614
X4.4945Y-2.4236
X4.5276Y-3.4193
X4.5492Y-3.8839
X4.5748Y-2.4469
X4.5827Y-3.3583
X4.5886Y-3.5039
X4.6063Y-2.5433
X4.6063Y-2.9764
X4.6083Y-3.065
X4.6142Y-2.5984
X4.6201Y-2.3051
X4.626Y-3.2776
X4.6319Y-1.9823
X4.6476Y-3.8839
X4.6594Y-3.4291
X4.6614Y-3.1378
X4.687Y-2.5453
X4.6969Y-2.1535
X4.7283Y-2.7165
X4.7323Y-3.1732
X4.7362Y-2.4134
X4.7441Y-2.9291
X4.7461Y-3.8839
X4.748Y-3.4724
X4.7677Y-2.2579
X4.7972Y-2.3346
X4.7972Y-3.6417
X4.8031Y-2.6693
X4.8031Y-2.872
X4.8228Y-3.0354
X4.8366Y-1.9902
X4.8386Y-3.4665
X4.8445Y-3.8839
X4.8661Y-3.2677
X4.8661Y-3.315
X4.872Y-2.2657
X4.874Y-3.1654
X4.8976Y-2.0787
X4.9134Y-3.3465
X4.9173Y-3.5906
X4.9193Y-2.9783
X4.9213Y-3.0531
X4.937Y-2.1496
X4.937Y-2.3425
X4.9429Y-3.8839
X4.9587Y-3.1398
X4.9685Y-3.3465
X5.0118Y-2.6457
X5.0118Y-2.6772
X5.0118Y-2.7087
X5.0118Y-2.7402
X5.0118Y-2.7717
X5.0118Y-2.8031
X5.0118Y-2.8346
X5.0118Y-2.8661
X5.0118Y-2.8976
X5.0118Y-2.9291
X5.0118Y-3.5984
X5.0433Y-2.6457
X5.0433Y-2.9291
X5.0689Y-3.1437
X5.0709Y-2.1575
X5.0748Y-2.6457
X5.0748Y-2.9291
X5.0787Y-2.0157
X5.0866Y-3.874
X5.1043Y-3.0984
X5.1063Y-2.6457
X5.1063Y-2.9291
X5.1319Y-3.4469
X5.1378Y-2.6457
X5.1378Y-2.6772
X5.1378Y-2.7087
X5.1378Y-2.7402
X5.1378Y-2.7717
X5.1378Y-2.8031
X5.1378Y-2.8346
X5.1378Y-2.8661
X5.1378Y-2.8976
X5.1378Y-2.9291
X5.1492Y-3.1177
X5.1535Y-3.378
X5.1654Y-2.1614
X5.1969Y-2.6378
X5.2126Y-3.3465
X5.2402Y-3.6378
X5.252Y-3.3465
X5.2559Y-2.5413
X5.2638Y-2.1614
X5.2992Y-3.3465
X5.313Y-2.8031
X5.313Y-2.9902
X5.315Y-2.3701
X5.3307Y-3.5827
X5.3386Y-3.3465
X5.374Y-2.1614
X5.376Y-3.1417
X5.378Y-3.2126
X5.3858Y-3.0709
X5.3858Y-3.3465
X5.4154Y-2.5
X5.4173Y-3.7953
X5.4213Y-3.5394
X5.4252Y-3.3622
X5.4587Y-3.0295
X5.4606Y-3.2638
X5.4646Y-3.2106
X5.4685Y-2.0079
X5.4685Y-2.5728
X5.498Y-3.8878
X5.5Y-2.1654
X5.563Y-2.0118
X5.563Y-2.3602
X5.5669Y-3.3858
X5.5669Y-3.5315
X5.5866Y-3.0079
X5.5965Y-3.8878
X5.622Y-2.1575
X5.626Y-2.8622
X5.6299Y-2.0157
X5.6339Y-2.4094
X5.6535Y-3.3858
X5.6772Y-3.3386
X5.687Y-2.2283
X5.6949Y-3.8878
X5.7244Y-3.3386
X5.7382Y-3.0866
X5.7441Y-2.7953
X5.7638Y-2.0
X5.7717Y-2.6732
X5.7736Y-3.6516
X5.7835Y-2.2421
X5.7933Y-3.2283
X5.7933Y-3.8878
X5.7953Y-2.5433
X5.8031Y-3.4173
X5.8406Y-3.2972
X5.8504Y-3.1339
X5.8583Y-2.1102
X5.8583Y-2.2185
X5.8602Y-3.5433
X5.872Y-3.6496
X5.8917Y-3.8878
X5.9154Y-3.2323
X5.9311Y-2.0138
X5.9331Y-3.5453
X5.9528Y-3.1811
X5.9685Y-3.1024
X5.9902Y-3.8878
X6.0079Y-2.8268
X6.0079Y-3.1024
X6.0079Y-3.4744
X6.0394Y-2.1339
X6.0551Y-3.1024
X6.0551Y-3.4173
X6.0591Y-3.628
X6.0787Y-2.1417
X6.0846Y-2.0177
X6.0886Y-3.8878
X6.0984Y-2.6043
X6.1043Y-2.8071
X6.1122Y-2.4075
X6.122Y-2.3209
X6.1319Y-3.1004
X6.1654Y-2.8346
X6.1811Y-3.0709
X6.187Y-3.8878
X6.2106Y-2.1083
X6.248Y-2.8642
X6.2677Y-3.311
X6.2697Y-3.4469
X6.3228Y-3.1339
X6.3307Y-3.0157
X6.437Y-2.2638
X6.437Y-2.3622
X6.437Y-2.4606
X6.437Y-2.5591
X6.437Y-2.6575
X6.437Y-2.9528
X6.437Y-3.0512
X6.437Y-3.1496
X6.437Y-3.248
X6.437Y-3.3465
X6.437Y-3.4449
X6.437Y-3.5433
X6.437Y-3.6417
X6.4606Y-1.9941
T4
X5.9016Y-2.4921
X5.9665Y-3.7441
X5.9665Y-3.8228
X5.9803Y-2.4921
T5
X4.0157Y-2.2224
X4.0157Y-2.3224
X4.0157Y-2.4224
X4.0157Y-2.5224
X4.2665Y-1.8201
X4.2665Y-1.9201
X4.3583Y-2.0669
X4.3665Y-1.8201
X4.3665Y-1.9201
X4.4583Y-2.0669
X4.4665Y-1.8201
X4.4665Y-1.9201
X4.5079Y-2.6644
X4.5079Y-2.7644
X4.5079Y-2.8644
X4.5079Y-2.9644
X4.5079Y-3.0644
X4.5583Y-2.0669
X4.5665Y-1.8201
X4.5665Y-1.9201
X4.6583Y-2.0669
X4.6665Y-1.8201
X4.6665Y-1.9201
X4.7665Y-1.8201
X4.7665Y-1.9201
X4.8665Y-1.8201
X4.8665Y-1.9201
X4.9665Y-1.8201
X4.9665Y-1.9201
X5.0665Y-1.8201
X5.0665Y-1.9201
X5.078Y-2.8642
X5.1665Y-1.8201
X5.1665Y-1.9201
X5.1746Y-3.7205
X5.2665Y-1.8201
X5.2665Y-1.9201
X5.2746Y-3.7205
X5.3665Y-1.8201
X5.3665Y-1.9201
X5.4665Y-1.8201
X5.4665Y-1.9201
X5.5665Y-1.8201
X5.5665Y-1.9201
X5.6665Y-1.8201
X5.6665Y-1.9201
X5.7665Y-1.8201
X5.7665Y-1.9201
X5.8665Y-1.8201
X5.8665Y-1.9201
X5.9665Y-1.8201
X5.9665Y-1.9201
X6.0665Y-1.8201
X6.0665Y-1.9201
X6.1004Y-3.2677
X6.1665Y-1.8201
X6.1665Y-1.9201
X6.1988Y-3.2677
T3
G00X5.4028Y-3.6882
M15
G01X5.4028Y-3.7315
M16
G05
G00X5.4028Y-3.8626
M15
G01X5.4028Y-3.8862
M16
G05
G00X5.7429Y-3.6882
M15
G01X5.7429Y-3.7315
M16
G05
G00X5.7429Y-3.8626
M15
G01X5.7429Y-3.8862
M16
G05
T0
M30
