G04 #@! TF.GenerationSoftware,KiCad,Pcbnew,7.0.7*
G04 #@! TF.CreationDate,2023-12-10T12:49:09-04:00*
G04 #@! TF.ProjectId,Pi hat LoRa,50692068-6174-4204-9c6f-52612e6b6963,rev?*
G04 #@! TF.SameCoordinates,Original*
G04 #@! TF.FileFunction,Paste,Top*
G04 #@! TF.FilePolarity,Positive*
%FSLAX46Y46*%
G04 Gerber Fmt 4.6, Leading zero omitted, Abs format (unit mm)*
G04 Created by KiCad (PCBNEW 7.0.7) date 2023-12-10 12:49:09*
%MOMM*%
%LPD*%
G01*
G04 APERTURE LIST*
G04 Aperture macros list*
%AMRoundRect*
0 Rectangle with rounded corners*
0 $1 Rounding radius*
0 $2 $3 $4 $5 $6 $7 $8 $9 X,Y pos of 4 corners*
0 Add a 4 corners polygon primitive as box body*
4,1,4,$2,$3,$4,$5,$6,$7,$8,$9,$2,$3,0*
0 Add four circle primitives for the rounded corners*
1,1,$1+$1,$2,$3*
1,1,$1+$1,$4,$5*
1,1,$1+$1,$6,$7*
1,1,$1+$1,$8,$9*
0 Add four rect primitives between the rounded corners*
20,1,$1+$1,$2,$3,$4,$5,0*
20,1,$1+$1,$4,$5,$6,$7,0*
20,1,$1+$1,$6,$7,$8,$9,0*
20,1,$1+$1,$8,$9,$2,$3,0*%
G04 Aperture macros list end*
%ADD10RoundRect,0.135000X0.185000X-0.135000X0.185000X0.135000X-0.185000X0.135000X-0.185000X-0.135000X0*%
%ADD11RoundRect,0.150000X-0.150000X0.512500X-0.150000X-0.512500X0.150000X-0.512500X0.150000X0.512500X0*%
%ADD12RoundRect,0.140000X-0.170000X0.140000X-0.170000X-0.140000X0.170000X-0.140000X0.170000X0.140000X0*%
%ADD13R,1.500000X2.000000*%
%ADD14RoundRect,0.218750X0.218750X0.256250X-0.218750X0.256250X-0.218750X-0.256250X0.218750X-0.256250X0*%
%ADD15RoundRect,0.200000X-0.275000X0.200000X-0.275000X-0.200000X0.275000X-0.200000X0.275000X0.200000X0*%
%ADD16RoundRect,0.140000X0.140000X0.170000X-0.140000X0.170000X-0.140000X-0.170000X0.140000X-0.170000X0*%
%ADD17RoundRect,0.140000X0.170000X-0.140000X0.170000X0.140000X-0.170000X0.140000X-0.170000X-0.140000X0*%
%ADD18RoundRect,0.135000X-0.135000X-0.185000X0.135000X-0.185000X0.135000X0.185000X-0.135000X0.185000X0*%
%ADD19RoundRect,0.218750X0.256250X-0.218750X0.256250X0.218750X-0.256250X0.218750X-0.256250X-0.218750X0*%
%ADD20RoundRect,0.150000X0.150000X-0.825000X0.150000X0.825000X-0.150000X0.825000X-0.150000X-0.825000X0*%
%ADD21RoundRect,0.135000X-0.185000X0.135000X-0.185000X-0.135000X0.185000X-0.135000X0.185000X0.135000X0*%
%ADD22RoundRect,0.250000X0.325000X0.650000X-0.325000X0.650000X-0.325000X-0.650000X0.325000X-0.650000X0*%
%ADD23RoundRect,0.150000X0.587500X0.150000X-0.587500X0.150000X-0.587500X-0.150000X0.587500X-0.150000X0*%
%ADD24RoundRect,0.112500X-0.187500X-0.112500X0.187500X-0.112500X0.187500X0.112500X-0.187500X0.112500X0*%
%ADD25RoundRect,0.150000X-0.512500X-0.150000X0.512500X-0.150000X0.512500X0.150000X-0.512500X0.150000X0*%
%ADD26R,2.600000X3.100000*%
%ADD27R,1.550000X0.600000*%
%ADD28R,0.600000X1.450000*%
%ADD29R,0.300000X1.450000*%
%ADD30R,1.000000X1.800000*%
%ADD31RoundRect,0.250000X-1.000000X-0.650000X1.000000X-0.650000X1.000000X0.650000X-1.000000X0.650000X0*%
%ADD32R,0.250000X1.100000*%
%ADD33RoundRect,0.140000X-0.140000X-0.170000X0.140000X-0.170000X0.140000X0.170000X-0.140000X0.170000X0*%
%ADD34RoundRect,0.135000X0.135000X0.185000X-0.135000X0.185000X-0.135000X-0.185000X0.135000X-0.185000X0*%
%ADD35R,3.800000X2.000000*%
%ADD36R,4.400000X2.200000*%
%ADD37R,4.000000X2.200000*%
%ADD38RoundRect,0.112500X0.187500X0.112500X-0.187500X0.112500X-0.187500X-0.112500X0.187500X-0.112500X0*%
%ADD39RoundRect,0.250000X1.000000X0.650000X-1.000000X0.650000X-1.000000X-0.650000X1.000000X-0.650000X0*%
%ADD40RoundRect,0.250000X0.375000X0.850000X-0.375000X0.850000X-0.375000X-0.850000X0.375000X-0.850000X0*%
%ADD41R,0.900000X1.500000*%
G04 APERTURE END LIST*
D10*
X147187500Y-88822500D03*
X147187500Y-87802500D03*
D11*
X152070000Y-55282500D03*
X151120000Y-55282500D03*
X150170000Y-55282500D03*
X150170000Y-57557500D03*
X151120000Y-57557500D03*
X152070000Y-57557500D03*
D12*
X132400000Y-82500000D03*
X132400000Y-83460000D03*
D13*
X128980000Y-69000000D03*
X130980000Y-69000000D03*
X132980000Y-69000000D03*
X134980000Y-69000000D03*
X136980000Y-69000000D03*
X138980000Y-69000000D03*
X140980000Y-69000000D03*
X142980000Y-69000000D03*
X142980000Y-53000000D03*
X140980000Y-53000000D03*
X138980000Y-53000000D03*
X136980000Y-53000000D03*
X134980000Y-53000000D03*
X132980000Y-53000000D03*
X130980000Y-53000000D03*
X128980000Y-53000000D03*
D12*
X103720000Y-76070000D03*
X103720000Y-77030000D03*
D14*
X147727500Y-75030000D03*
X146152500Y-75030000D03*
D15*
X157240000Y-75180000D03*
X157240000Y-76830000D03*
D16*
X133470000Y-74150000D03*
X132510000Y-74150000D03*
X133480000Y-72750000D03*
X132520000Y-72750000D03*
D17*
X110735000Y-81080000D03*
X110735000Y-80120000D03*
D18*
X105775000Y-73550000D03*
X106795000Y-73550000D03*
D19*
X128000000Y-98425000D03*
X128000000Y-96850000D03*
D20*
X105345000Y-80475000D03*
X106615000Y-80475000D03*
X107885000Y-80475000D03*
X109155000Y-80475000D03*
X109155000Y-75525000D03*
X107885000Y-75525000D03*
X106615000Y-75525000D03*
X105345000Y-75525000D03*
D21*
X113000000Y-58250000D03*
X113000000Y-59270000D03*
D22*
X107375000Y-52500000D03*
X104425000Y-52500000D03*
D23*
X111037500Y-63210000D03*
X111037500Y-61310000D03*
X109162500Y-62260000D03*
D24*
X120850000Y-78900000D03*
X122950000Y-78900000D03*
D23*
X145537500Y-89262500D03*
X145537500Y-87362500D03*
X143662500Y-88312500D03*
D25*
X140525000Y-82690000D03*
X140525000Y-83640000D03*
X140525000Y-84590000D03*
X142800000Y-84590000D03*
X142800000Y-82690000D03*
D21*
X147200000Y-90290000D03*
X147200000Y-91310000D03*
D26*
X152550000Y-75450000D03*
D27*
X155250000Y-77355000D03*
X155250000Y-76085000D03*
X155250000Y-74815000D03*
X155250000Y-73545000D03*
X149850000Y-73545000D03*
X149850000Y-74815000D03*
X149850000Y-76085000D03*
X149850000Y-77355000D03*
D10*
X107200000Y-58910000D03*
X107200000Y-57890000D03*
D28*
X138300000Y-93315000D03*
X139100000Y-93315000D03*
D29*
X140300000Y-93315000D03*
X141300000Y-93315000D03*
X141800000Y-93315000D03*
X142800000Y-93315000D03*
D28*
X144000000Y-93315000D03*
X144800000Y-93315000D03*
X144800000Y-93315000D03*
X144000000Y-93315000D03*
D29*
X143300000Y-93315000D03*
X142300000Y-93315000D03*
X140800000Y-93315000D03*
X139800000Y-93315000D03*
D28*
X139100000Y-93315000D03*
X138300000Y-93315000D03*
D21*
X107300000Y-62690000D03*
X107300000Y-63710000D03*
D18*
X149840000Y-53400000D03*
X150860000Y-53400000D03*
D16*
X133480000Y-71300000D03*
X132520000Y-71300000D03*
D12*
X137500000Y-82520000D03*
X137500000Y-83480000D03*
D21*
X147000000Y-84690000D03*
X147000000Y-85710000D03*
D17*
X144400000Y-83680000D03*
X144400000Y-82720000D03*
D30*
X103500000Y-83500000D03*
X106000000Y-83500000D03*
D12*
X145500000Y-82670000D03*
X145500000Y-83630000D03*
D31*
X127200000Y-89400000D03*
X131200000Y-89400000D03*
D24*
X120800000Y-81400000D03*
X122900000Y-81400000D03*
D25*
X154075000Y-55650000D03*
X154075000Y-56600000D03*
X154075000Y-57550000D03*
X156350000Y-57550000D03*
X156350000Y-56600000D03*
X156350000Y-55650000D03*
D32*
X109400000Y-71500000D03*
X109900000Y-71500000D03*
X110400000Y-71500000D03*
X110900000Y-71500000D03*
X111400000Y-71500000D03*
X111400000Y-67200000D03*
X110900000Y-67200000D03*
X110400000Y-67200000D03*
X109900000Y-67200000D03*
X109400000Y-67200000D03*
D31*
X149000000Y-69200000D03*
X153000000Y-69200000D03*
D23*
X111100000Y-59660000D03*
X111100000Y-57760000D03*
X109225000Y-58710000D03*
D14*
X147727500Y-76780000D03*
X146152500Y-76780000D03*
D12*
X134900000Y-82620000D03*
X134900000Y-83580000D03*
D33*
X123340000Y-59500000D03*
X124300000Y-59500000D03*
D18*
X149190000Y-59300000D03*
X150210000Y-59300000D03*
D33*
X150340000Y-71830000D03*
X151300000Y-71830000D03*
D12*
X136300000Y-82520000D03*
X136300000Y-83480000D03*
D33*
X110520000Y-65500000D03*
X111480000Y-65500000D03*
D34*
X139810000Y-86000000D03*
X138790000Y-86000000D03*
D13*
X125400000Y-83050000D03*
X127700000Y-83050000D03*
D35*
X127700000Y-76750000D03*
D13*
X130000000Y-83050000D03*
D36*
X121650000Y-90400000D03*
D37*
X105650000Y-90400000D03*
D38*
X157050000Y-86800000D03*
X154950000Y-86800000D03*
D33*
X151220000Y-59300000D03*
X152180000Y-59300000D03*
D39*
X157000000Y-90200000D03*
X153000000Y-90200000D03*
D40*
X143300000Y-80200000D03*
X141150000Y-80200000D03*
D16*
X133430000Y-76650000D03*
X132470000Y-76650000D03*
D21*
X113000000Y-61730000D03*
X113000000Y-62750000D03*
D15*
X128000000Y-93775000D03*
X128000000Y-95425000D03*
D41*
X122300000Y-57680000D03*
X125600000Y-57680000D03*
X125600000Y-52780000D03*
X122300000Y-52780000D03*
D31*
X134500000Y-79800000D03*
X138500000Y-79800000D03*
D12*
X133600000Y-82500000D03*
X133600000Y-83460000D03*
D18*
X146990000Y-79100000D03*
X148010000Y-79100000D03*
D16*
X133450000Y-75400000D03*
X132490000Y-75400000D03*
D21*
X138800000Y-83890000D03*
X138800000Y-84910000D03*
M02*
