G04 #@! TF.GenerationSoftware,KiCad,Pcbnew,7.0.7*
G04 #@! TF.CreationDate,2023-12-10T12:49:09-04:00*
G04 #@! TF.ProjectId,Pi hat LoRa,50692068-6174-4204-9c6f-52612e6b6963,rev?*
G04 #@! TF.SameCoordinates,Original*
G04 #@! TF.FileFunction,Soldermask,Bot*
G04 #@! TF.FilePolarity,Negative*
%FSLAX46Y46*%
G04 Gerber Fmt 4.6, Leading zero omitted, Abs format (unit mm)*
G04 Created by KiCad (PCBNEW 7.0.7) date 2023-12-10 12:49:09*
%MOMM*%
%LPD*%
G01*
G04 APERTURE LIST*
G04 Aperture macros list*
%AMRoundRect*
0 Rectangle with rounded corners*
0 $1 Rounding radius*
0 $2 $3 $4 $5 $6 $7 $8 $9 X,Y pos of 4 corners*
0 Add a 4 corners polygon primitive as box body*
4,1,4,$2,$3,$4,$5,$6,$7,$8,$9,$2,$3,0*
0 Add four circle primitives for the rounded corners*
1,1,$1+$1,$2,$3*
1,1,$1+$1,$4,$5*
1,1,$1+$1,$6,$7*
1,1,$1+$1,$8,$9*
0 Add four rect primitives between the rounded corners*
20,1,$1+$1,$2,$3,$4,$5,0*
20,1,$1+$1,$4,$5,$6,$7,0*
20,1,$1+$1,$6,$7,$8,$9,0*
20,1,$1+$1,$8,$9,$2,$3,0*%
%AMFreePoly0*
4,1,19,0.500000,-0.750000,0.000000,-0.750000,0.000000,-0.744911,-0.071157,-0.744911,-0.207708,-0.704816,-0.327430,-0.627875,-0.420627,-0.520320,-0.479746,-0.390866,-0.500000,-0.250000,-0.500000,0.250000,-0.479746,0.390866,-0.420627,0.520320,-0.327430,0.627875,-0.207708,0.704816,-0.071157,0.744911,0.000000,0.744911,0.000000,0.750000,0.500000,0.750000,0.500000,-0.750000,0.500000,-0.750000,
$1*%
%AMFreePoly1*
4,1,19,0.000000,0.744911,0.071157,0.744911,0.207708,0.704816,0.327430,0.627875,0.420627,0.520320,0.479746,0.390866,0.500000,0.250000,0.500000,-0.250000,0.479746,-0.390866,0.420627,-0.520320,0.327430,-0.627875,0.207708,-0.704816,0.071157,-0.744911,0.000000,-0.744911,0.000000,-0.750000,-0.500000,-0.750000,-0.500000,0.750000,0.000000,0.750000,0.000000,0.744911,0.000000,0.744911,
$1*%
G04 Aperture macros list end*
%ADD10RoundRect,0.250000X0.350000X0.625000X-0.350000X0.625000X-0.350000X-0.625000X0.350000X-0.625000X0*%
%ADD11O,1.200000X1.750000*%
%ADD12RoundRect,0.250000X-0.600000X-0.750000X0.600000X-0.750000X0.600000X0.750000X-0.600000X0.750000X0*%
%ADD13O,1.700000X2.000000*%
%ADD14C,2.700000*%
%ADD15C,0.650000*%
%ADD16O,1.000000X2.100000*%
%ADD17O,1.000000X1.600000*%
%ADD18R,1.700000X1.700000*%
%ADD19RoundRect,0.250000X0.625000X-0.350000X0.625000X0.350000X-0.625000X0.350000X-0.625000X-0.350000X0*%
%ADD20O,1.750000X1.200000*%
%ADD21C,1.500000*%
%ADD22O,1.700000X1.700000*%
%ADD23FreePoly0,0.000000*%
%ADD24FreePoly1,0.000000*%
%ADD25FreePoly0,270.000000*%
%ADD26FreePoly1,270.000000*%
G04 APERTURE END LIST*
D10*
X151900000Y-63300000D03*
D11*
X149900000Y-63300000D03*
D12*
X154950000Y-83000000D03*
D13*
X157450000Y-83000000D03*
D14*
X161500000Y-70500000D03*
X161500000Y-47500000D03*
D15*
X138660000Y-94760000D03*
X144440000Y-94760000D03*
D16*
X137230000Y-94230000D03*
D17*
X137230000Y-98410000D03*
D16*
X145870000Y-94230000D03*
D17*
X145870000Y-98410000D03*
D14*
X103500000Y-96500000D03*
D18*
X128980000Y-72750000D03*
D14*
X103500000Y-47500000D03*
X103500000Y-70500000D03*
D19*
X151550000Y-97100000D03*
D20*
X151550000Y-95100000D03*
D14*
X161500000Y-96500000D03*
D21*
X110050000Y-90400000D03*
X117550000Y-90400000D03*
D18*
X108370000Y-48770000D03*
D22*
X108370000Y-46230000D03*
X110910000Y-48770000D03*
X110910000Y-46230000D03*
X113450000Y-48770000D03*
X113450000Y-46230000D03*
X115990000Y-48770000D03*
X115990000Y-46230000D03*
X118530000Y-48770000D03*
X118530000Y-46230000D03*
X121070000Y-48770000D03*
X121070000Y-46230000D03*
X123610000Y-48770000D03*
X123610000Y-46230000D03*
X126150000Y-48770000D03*
X126150000Y-46230000D03*
X128690000Y-48770000D03*
X128690000Y-46230000D03*
X131230000Y-48770000D03*
X131230000Y-46230000D03*
X133770000Y-48770000D03*
X133770000Y-46230000D03*
X136310000Y-48770000D03*
X136310000Y-46230000D03*
X138850000Y-48770000D03*
X138850000Y-46230000D03*
X141390000Y-48770000D03*
X141390000Y-46230000D03*
X143930000Y-48770000D03*
X143930000Y-46230000D03*
X146470000Y-48770000D03*
X146470000Y-46230000D03*
X149010000Y-48770000D03*
X149010000Y-46230000D03*
X151550000Y-48770000D03*
X151550000Y-46230000D03*
X154090000Y-48770000D03*
X154090000Y-46230000D03*
X156630000Y-48770000D03*
X156630000Y-46230000D03*
D18*
X110700000Y-52500000D03*
D22*
X113240000Y-52500000D03*
X115780000Y-52500000D03*
X118320000Y-52500000D03*
D23*
X153750000Y-63200000D03*
D24*
X155050000Y-63200000D03*
D18*
X102000000Y-56450000D03*
D22*
X102000000Y-58990000D03*
X102000000Y-61530000D03*
X102000000Y-64070000D03*
D23*
X131700000Y-97800000D03*
D24*
X133000000Y-97800000D03*
D18*
X114500000Y-67675000D03*
D22*
X114500000Y-70215000D03*
X114500000Y-72755000D03*
X114500000Y-75295000D03*
X114500000Y-77835000D03*
D18*
X133975000Y-94500000D03*
D22*
X131435000Y-94500000D03*
D25*
X120700000Y-84550000D03*
D26*
X120700000Y-85850000D03*
M02*
